<svg xmlns="http://www.w3.org/2000/svg" viewBox="0 0 512 512">
  <!-- Controller body -->
  <path d="M168,112 L344,112 C432,112 432,176 432,232 L432,260 C432,296 420,344 400,376 C384,400 356,416 332,408 C316,400 300,376 280,364 L232,364 C212,376 196,400 180,408 C156,416 128,400 112,376 C92,344 80,296 80,260 L80,232 C80,176 80,112 168,112 Z" fill="none" stroke="currentColor" stroke-width="32" stroke-linecap="round" stroke-linejoin="round"/>

  <!-- D-pad horizontal bar -->
  <rect x="108" y="224" width="84" height="28" rx="6" fill="currentColor"/>
  <!-- D-pad vertical bar -->
  <rect x="136" y="196" width="28" height="84" rx="6" fill="currentColor"/>

  <!-- 4 action buttons (diamond pattern) -->
  <circle cx="348" cy="210" r="18" fill="currentColor"/>
  <circle cx="308" cy="248" r="18" fill="currentColor"/>
  <circle cx="388" cy="248" r="18" fill="currentColor"/>
  <circle cx="348" cy="286" r="18" fill="currentColor"/>

  <!-- Center home button (ring) -->
  <circle cx="256" cy="248" r="18" fill="none" stroke="currentColor" stroke-width="24"/>
</svg>
