<svg xmlns="http://www.w3.org/2000/svg" viewBox="0 0 512 512">
  <path d="M388,448c0,1.2.2,4.8.4,14.4c.1,4.71.4,9.41.9,14.1s1.1,9.39,1.8,14.1L384,512l-12.8-19.1a120.7,120.7,0,0,1-3.6-25c-.7-8.3-1.1-16.7-1.1-25.1" fill="none" stroke="currentColor" stroke-linecap="round" stroke-linejoin="round" stroke-width="32" />
  <path d="M112,448c0,1.2-.2,4.8-.4,14.4c-.1,4.71-.4,9.41-.9,14.1s-1.1,9.39-1.8,14.1L128,512l12.8-19.1a120.7,120.7,0,0,0,3.6-25c.7-8.3,1.1-16.7,1.1-25.1" fill="none" stroke="currentColor" stroke-linecap="round" stroke-linejoin="round" stroke-width="32" />
  <circle cx="256" cy="192" r="128" fill="none" stroke="currentColor" stroke-linecap="round" stroke-linejoin="round" stroke-width="32" />
  <path d="M256,320c-70.69,0-128,57.31-128,128" fill="none" stroke="currentColor" stroke-linecap="round" stroke-linejoin="round" stroke-width="32" />
  <path d="M256,320c70.69,0,128,57.31,128,128" fill="none" stroke="currentColor" stroke-linecap="round" stroke-linejoin="round" stroke-width="32" />
</svg>
